<svg width="16" height="15" viewBox="0 0 16 15" fill="none" xmlns="http://www.w3.org/2000/svg">
<path d="M8.29398 0C9.14003 0.00224995 9.56945 0.00674984 9.94021 0.0172496L10.0861 0.0224995C10.2546 0.0284993 10.4208 0.0359991 10.6216 0.0449989C11.4217 0.082498 11.9677 0.208495 12.4468 0.393741C12.9431 0.584236 13.3613 0.84223 13.7794 1.25847C14.1618 1.63338 14.4577 2.08689 14.6465 2.58744C14.8323 3.06518 14.9586 3.60967 14.9962 4.4084C15.0052 4.60789 15.0128 4.77364 15.0188 4.94238L15.0233 5.08788C15.0346 5.45687 15.0391 5.88511 15.0406 6.72884L15.0413 7.28833V8.27081C15.0432 8.81785 15.0374 9.36489 15.024 9.91177L15.0195 10.0573C15.0135 10.226 15.006 10.3918 14.997 10.5913C14.9594 11.39 14.8315 11.9337 14.6465 12.4122C14.4583 12.913 14.1623 13.3667 13.7794 13.7412C13.4033 14.1224 12.9486 14.4175 12.4468 14.6059C11.9677 14.7912 11.4217 14.9172 10.6216 14.9547C10.4431 14.963 10.2646 14.9705 10.0861 14.9771L9.94021 14.9816C9.56945 14.9921 9.14003 14.9974 8.29398 14.9989L7.73296 14.9996H6.74853C6.19974 15.0015 5.65094 14.9958 5.10231 14.9824L4.95641 14.9779C4.77788 14.9712 4.59939 14.9634 4.42095 14.9547C3.62078 14.9172 3.07479 14.7912 2.59499 14.6059C2.09313 14.4179 1.63855 14.1228 1.26312 13.7412C0.88036 13.3664 0.584189 12.9129 0.395258 12.4122C0.209502 11.9345 0.0831588 11.39 0.0455566 10.5913C0.0371779 10.4133 0.0296574 10.2353 0.0229953 10.0573L0.0192351 9.91177C0.00537648 9.36489 -0.000891236 8.81785 0.00043393 8.27081V6.72884C-0.001665 6.18181 0.00385058 5.63477 0.016979 5.08788L0.0222433 4.94238C0.0282596 4.77364 0.03578 4.60789 0.0448046 4.4084C0.0824068 3.60967 0.20875 3.06593 0.394505 2.58744C0.583354 2.08638 0.880116 1.63273 1.26387 1.25847C1.63921 0.877085 2.09348 0.581977 2.59499 0.393741C3.07479 0.208495 3.62003 0.082498 4.42095 0.0449989C4.621 0.0359991 4.78795 0.0284993 4.95641 0.0224995L5.10231 0.0179995C5.65069 0.00467442 6.19924 -0.001076 6.74778 0.000749928L8.29398 0ZM7.52088 3.74991C6.52361 3.74991 5.56718 4.14499 4.862 4.84824C4.15682 5.55148 3.76066 6.50529 3.76066 7.49982C3.76066 8.49436 4.15682 9.44817 4.862 10.1514C5.56718 10.8547 6.52361 11.2497 7.52088 11.2497C8.51816 11.2497 9.47458 10.8547 10.1798 10.1514C10.8849 9.44817 11.2811 8.49436 11.2811 7.49982C11.2811 6.50529 10.8849 5.55148 10.1798 4.84824C9.47458 4.14499 8.51816 3.74991 7.52088 3.74991ZM7.52088 5.24988C7.81716 5.24983 8.11055 5.30798 8.3843 5.421C8.65804 5.53403 8.90678 5.69971 9.11632 5.90861C9.32586 6.1175 9.49208 6.3655 9.60551 6.63846C9.71894 6.91142 9.77734 7.20398 9.77739 7.49945C9.77744 7.79492 9.71914 8.0875 9.6058 8.3605C9.49246 8.63349 9.32632 8.88155 9.11685 9.09051C8.90739 9.29947 8.6587 9.46525 8.38499 9.57836C8.11128 9.69148 7.81791 9.74972 7.52164 9.74977C6.92327 9.74977 6.34941 9.51272 5.92631 9.09078C5.5032 8.66883 5.2655 8.09655 5.2655 7.49982C5.2655 6.9031 5.5032 6.33082 5.92631 5.90887C6.34941 5.48692 6.92327 5.24988 7.52164 5.24988M11.4699 2.62494C11.2206 2.62494 10.9814 2.72371 10.8052 2.89952C10.6289 3.07533 10.5298 3.31378 10.5298 3.56242C10.5298 3.81105 10.6289 4.0495 10.8052 4.22531C10.9814 4.40112 11.2206 4.4999 11.4699 4.4999C11.7192 4.4999 11.9583 4.40112 12.1346 4.22531C12.3109 4.0495 12.4099 3.81105 12.4099 3.56242C12.4099 3.31378 12.3109 3.07533 12.1346 2.89952C11.9583 2.72371 11.7192 2.62494 11.4699 2.62494Z" fill="#02FE56"/>
</svg>
