<svg width="16" height="13" viewBox="0 0 16 13" fill="none" xmlns="http://www.w3.org/2000/svg">
<path fill-rule="evenodd" clip-rule="evenodd" d="M13.6392 0.0880988C13.8257 0.010092 14.0298 -0.016812 14.2303 0.0101867C14.4308 0.0371854 14.6204 0.1171 14.7793 0.241613C14.9382 0.366125 15.0606 0.530684 15.1338 0.718161C15.2069 0.905638 15.2282 1.10918 15.1954 1.3076L13.4837 11.6253C13.3177 12.6206 12.2188 13.1913 11.3003 12.6956C10.532 12.2808 9.39093 11.6418 8.36454 10.9751C7.85134 10.6413 6.27929 9.5726 6.47249 8.8121C6.63853 8.16185 9.27999 5.71835 10.7894 4.2656C11.3818 3.69485 11.1117 3.3656 10.412 3.8906C8.67472 5.1941 5.88533 7.17635 4.96309 7.73435C4.14952 8.22635 3.72537 8.31035 3.21821 8.22635C2.29294 8.07335 1.43485 7.83635 0.734481 7.5476C-0.211917 7.1576 -0.16588 5.8646 0.733727 5.4881L13.6392 0.0880988Z" fill="#02FE56"/>
</svg>
