<svg width="19" height="14" viewBox="0 0 19 14" fill="none" xmlns="http://www.w3.org/2000/svg">
<path d="M9.43051 0C9.91113 0.00262516 11.1136 0.0140008 12.3917 0.063879L12.8453 0.08313C14.1314 0.141759 15.4167 0.243265 16.0548 0.415651C16.9054 0.648415 17.5732 1.32571 17.7991 2.18501C18.1591 3.5501 18.2041 6.21201 18.2095 6.85693L18.2104 6.98994V7.1422C18.2041 7.78711 18.1591 10.4499 17.7991 11.8141C17.5705 12.676 16.9018 13.3542 16.0548 13.5835C15.4167 13.7559 14.1314 13.8574 12.8453 13.916L12.3917 13.9361C11.1136 13.9851 9.91113 13.9974 9.43051 13.9991L9.219 14H8.98949C7.97244 13.9939 3.71882 13.9492 2.36516 13.5835C1.51551 13.3507 0.846781 12.6734 0.62087 11.8141C0.260852 10.449 0.215849 7.78711 0.210449 7.1422V6.85693C0.215849 6.21201 0.260852 3.54922 0.62087 2.18501C0.849481 1.32308 1.51821 0.644915 2.36606 0.416526C3.71882 0.049878 7.97334 0.00525033 8.99039 0H9.43051ZM7.40991 3.93775V10.0631L12.8102 7.00044L7.40991 3.93775Z" fill="#02FE56"/>
</svg>
