<svg width="43" height="43" viewBox="0 0 43 43" fill="none" xmlns="http://www.w3.org/2000/svg"><path d="M21.21.21c-.6.5-1.03 1.14-1.15 1.74-.07.37-.07.47.05.82.11.33.2.45.53.72l.4.33v.88l-.35-.03c-.6-.07-.89-.16-1.22-.39l-.32-.23-.01-.68c0-.59-.02-.71-.18-.97-.28-.47-.97-.98-1.71-1.26C16.4.8 16.2.77 16.08.97c-.29.51-.31 1.82-.04 2.3.32.57 1.28 1.18 1.84 1.18.14 0 .33.1.62.32.78.59 1.68.84 3.06.83 1.36 0 2.3-.25 3-.8.23-.17.47-.3.63-.32.79-.14 1.49-.58 1.83-1.18.2-.34.21-.41.21-1.05-.01-.81-.2-1.38-.45-1.41-.08-.01-.47.11-.85.26-.81.33-1.49.82-1.78 1.3-.16.26-.18.38-.18.93 0 .62-.01.65-.22.86-.26.26-.69.42-1.25.47l-.43.04v-.94l.31-.23c.44-.35.61-.64.64-1.17.05-.56-.09-.96-.49-1.46-.31-.39-.88-.9-.98-.9-.03 0-.19.1-.34.21m.49 2.14c0 .2-.03.44-.08.54-.06.15-.08.15-.15.06-.13-.19-.16-.73-.06-.97.09-.21.1-.22.19-.11.06.06.1.26.1.48m-4 .41c.29.34.46.67.4.79-.1.21-.78-.57-.78-.91 0-.22.12-.19.38.12m8.09-.14c-.01.3-.59 1.04-.75.97-.13-.07.1-.56.43-.91.2-.23.32-.24.32-.06" fill="#333333"/><path d="M20.06 1.95c-.07.37-.07.47.05.82.11.33.2.45.53.72l.4.33v.88l-.35-.03c-.6-.07-.89-.16-1.22-.39l-.32-.23-.01-.68c0-.59-.02-.71-.18-.97-.28-.47-.97-.98-1.71-1.26C16.4.8 16.2.77 16.08.97c-.29.51-.31 1.82-.04 2.3.32.57 1.28 1.18 1.84 1.18.14 0 .33.1.62.32.78.59 1.68.84 3.06.83 1.36 0 2.3-.25 3-.8.23-.17.47-.3.63-.32.79-.14 1.49-.58 1.83-1.18.2-.34.21-.41.21-1.05-.01-.81-.2-1.38-.45-1.41-.08-.01-.47.11-.85.26-.81.33-1.49.82-1.78 1.3-.16.26-.18.38-.18.93 0 .62-.01.65-.22.86-.26.26-.69.42-1.25.47l-.43.04v-.94l.31-.23c.44-.35.61-.64.64-1.17.05-.56-.09-.96-.49-1.46-.31-.39-.88-.9-.98-.9-.03 0-.19.1-.34.21-.6.5-1.03 1.14-1.15 1.74m1.56.94c-.06.15-.08.15-.15.06-.13-.19-.16-.73-.06-.97.09-.21.1-.22.19-.11.06.06.1.26.1.48 0 .2-.03.44-.08.54m-3.52.66c-.1.21-.78-.57-.78-.91 0-.22.12-.19.38.12.29.34.46.67.4.79m6.94.04c-.13-.07.1-.56.43-.91.2-.23.32-.24.32-.06-.01.3-.59 1.04-.75.97"/><path d="M12.1 2.09c-.01.04-.07.17-.12.28-.15.39-.18 1.47-.04 1.9.22.68.77 1.27 1.52 1.63.23.11.87.56 1.42.99.85.67 1.05.87 1.32 1.28.45.7.81.95 1.9 1.28.95.3 1.38.53 1.87 1 .58.55.99 1.54.99 2.35v.34l-.19-.24c-.11-.12-.35-.34-.54-.48-.75-.54-1.52-.79-2.47-.79-.89 0-1.62-.18-1.96-.48-.26-.23-.38-.47-.48-.97a4 4 0 0 0-.15-.58c-.05-.06-.03-.21.02-.4.3-1.05-.94-2.07-2.91-2.4-.68-.11-.69-.1-.66.71.04.77.2 1.15.67 1.6.38.38.87.64 1.42.77.32.07.43.13.46.23.02.07.07.29.12.48.11.47.47 1 .84 1.26.15.1.28.2.26.22-.02.01-.25.07-.51.13-.72.17-1.3.15-1.79-.07-.6-.27-.83-.56-.99-1.19-.24-.94-.6-1.37-1.7-1.97-.53-.29-.57-.34-.57-.53 0-.38-.16-.72-.46-.99-.7-.64-1.95-.83-3.35-.53-.41.09-.44.11-.39.27.06.27.66 1.06 1.06 1.41.52.46.98.62 1.74.63h.55l.67.38c1 .56 1.22.81 1.36 1.55.12.59.35.98.82 1.35.65.51 1.53.77 2.41.71.25-.01.85-.13 1.34-.26.82-.21.96-.23 1.74-.23.8 0 .89.01 1.3.18.26.1.64.33.9.54.77.62 1.14 1.41 1.14 2.45v.51l-.18-.3c-.5-.8-1.57-1.53-2.67-1.81-.49-.13-.69-.14-3.12-.17l-2.6-.03-.42-.17c-.9-.35-1.4-.87-1.8-1.88-.45-1.1-1.03-1.71-1.88-1.96-.35-.11-.54-.13-1.13-.11-.6.02-.78.05-1.2.21-.76.29-1.47.72-1.47.91 0 .13.93.84 1.43 1.09.63.32 1.05.42 1.72.42.41-.01.72-.05 1-.13.22-.08.41-.13.42-.12s.11.22.23.47c.52 1.07 1.47 1.8 2.77 2.14.43.11.73.12 2.71.16 2.04.04 2.26.05 2.67.17.92.28 1.59.76 2.01 1.47.33.56.48 1.18.48 2.06-.01 2.11-1.28 3.91-3.18 4.45-.36.11-.68.13-2.21.17-1.81.04-1.99.06-2.64.33-.35.14-.64.34-.97.68l-.3.29h-.5c-.94 0-1.2.08-1.85.57-.59.44-.64.46-1.14.53-.82.11-.74.78.09.77.68-.01 1.04-.13 1.56-.55.26-.2.56-.4.66-.43.09-.03.39-.05.66-.05.81 0 1.04-.08 1.58-.54.71-.59.77-.61 2.28-.65.69-.02 1.25-.01 1.23.01-.02.03-.08.05-.13.05-.06 0-.37.1-.69.24-.58.23-.96.48-1.54 1.01l-.3.27-.81.08c-.44.04-.98.12-1.2.19-.49.14-.96.5-1.27.97-.43.65-.75.8-1.73.8-.87 0-1.38.24-2.04.98-.12.13-.34.35-.5.49-.32.28-.35.49-.13.67.27.21.5.15.99-.26.26-.21.61-.52.8-.69l.33-.32.82-.04c1.27-.07 1.73-.28 2.25-1.07.4-.58.67-.75 1.35-.83.26-.03.56-.06.67-.06h.2l-.04.5c-.03.38-.01.62.13 1.12.21.82.17 1.05-.26 1.52-.31.34-.61.54-1.23.86-.21.11-.27.18-.28.35-.02.18.01.24.17.32.17.09.23.09.5.02.73-.19 1.66-.85 2.02-1.42.31-.49.37-.87.22-1.61-.23-1.22-.05-1.98.61-2.51.41-.33.7-.47 1.57-.75 1.62-.51 2.62-1.03 3.67-1.89l.72-.6v.32c0 .45-.25 1.04-.59 1.39-.57.58-1.65 1.13-2.75 1.41-.86.21-1.09.32-1.5.67-.8.68-.86 1.35-.14 1.3.23-.02.3-.06.55-.35.38-.47.62-.61 1.36-.79.87-.22 1.32-.38 1.95-.72.73-.38 1.28-.79 1.64-1.23l.3-.35v.53c0 .29-.02.62-.04.72-.08.28-.56.68-1.15.93-.92.38-1.33.82-1.39 1.48-.02.27.01.44.13.71.1.2.19.47.2.61.04.23.01.27-.3.54-.38.32-.45.57-.21.74.23.17.5.13.85-.13.69-.5.86-1.09.54-1.81-.22-.52-.23-.64-.08-.86.14-.22.37-.37.93-.63.27-.12.57-.29.69-.38l.2-.15v2.74c0 2.67 0 2.73.16 2.89.19.19.58.21.81.03.14-.11.14-.19.14-2.89v-2.77l.25.18c.13.1.41.26.62.34.53.21.88.47 1.02.75.1.22.1.26 0 .49-.37.8-.39.94-.2 1.38.16.39.8.92 1.11.92.26 0 .34-.05.46-.22.13-.19.11-.24-.2-.51-.54-.47-.55-.55-.23-1.2.2-.39.23-.52.2-.79-.08-.55-.66-1.14-1.45-1.46-.99-.4-1.2-.75-1.14-1.87l.01-.27.23.29c.66.84 2.17 1.66 3.68 2.02.78.18.9.24 1.3.7.27.31.36.38.57.39.3.02.53-.12.53-.33 0-.39-.68-1.11-1.26-1.34-.18-.08-.59-.21-.89-.28-.63-.15-1.3-.4-1.75-.66-.5-.29-1.11-.81-1.29-1.08-.18-.3-.38-.97-.38-1.29l.01-.2.16.17c.31.37 1.45 1.19 2.09 1.53.7.37 1.52.7 2.4.96 1.58.48 2.33 1.44 2.1 2.69-.24 1.23-.24 1.24-.12 1.63.06.21.2.49.29.62.37.49 1.26 1.07 1.97 1.29.33.1.63-.03.66-.3.03-.23-.07-.34-.43-.49-.73-.3-1.48-1.1-1.48-1.58 0-.11.06-.45.15-.75.12-.42.15-.67.12-1.08l-.04-.53.54.04c.9.07 1.21.22 1.61.82.32.47.59.72 1.03.91.33.14.5.17 1.23.21.97.04.91.02 1.63.74.64.66.99.8 1.36.59.21-.12.22-.44 0-.59-.09-.06-.32-.29-.53-.5-.9-.92-1.08-1.01-2.26-1.08-1.04-.05-1.13-.1-1.64-.83-.58-.82-1.13-1.05-2.74-1.15-.6-.04-.6-.05-.8-.27-.46-.53-1.25-1.01-2.05-1.24l-.4-.12 1.3.02c1.53.01 1.7.06 2.21.57.48.48.79.6 1.56.6.73 0 .89.05 1.37.47.42.36.63.45 1.22.53.51.08.78.02.91-.17.21-.31.01-.5-.62-.59-.29-.04-.44-.12-.85-.44-.65-.51-.85-.59-1.7-.62-.68-.03-.69-.03-.93-.25-1.05-.94-1.51-1.07-3.75-1.07-2.12 0-2.68-.15-3.69-.98-.96-.78-1.49-1.75-1.66-3.08-.18-1.33.2-2.56 1.03-3.32.41-.37.84-.6 1.42-.76.44-.13.65-.14 2.67-.17 2.13-.04 2.2-.05 2.78-.21.76-.2 1.11-.37 1.65-.77.49-.37.85-.81 1.09-1.37.09-.21.19-.4.21-.41.01-.02.21.02.43.1.55.17 1.51.18 2.04.02s1.1-.48 1.74-.97l.56-.42-.19-.16c-.33-.29-1.25-.74-1.76-.86-.3-.08-.71-.13-1.02-.13-1.44 0-2.35.66-2.92 2.15-.32.82-.62 1.2-1.25 1.55-.76.42-.83.43-3.62.47-2.76.04-2.91.06-3.82.42-.61.24-1.51.94-1.84 1.45l-.24.35v-.51c0-1.32.77-2.46 1.98-2.92.47-.18.55-.19 1.36-.19.78 0 .92.02 1.74.23 1.13.29 1.7.34 2.39.17.82-.2 1.46-.58 1.85-1.11.1-.15.24-.51.33-.84.2-.81.39-1.01 1.44-1.6.49-.27.56-.29 1.11-.32.78-.05 1.36-.26 1.85-.67.38-.33 1.06-1.35.99-1.49-.07-.16-.84-.29-1.65-.29-1.53 0-2.37.51-2.52 1.51l-.05.34-.57.32c-1.11.63-1.45 1.03-1.69 1.97-.16.65-.41.93-1.03 1.19-.55.22-1.18.24-1.84.03l-.43-.13.36-.31c.48-.41.6-.6.76-1.22l.12-.51.49-.12c.9-.24 1.5-.69 1.85-1.39.17-.37.28-1.57.14-1.72-.06-.08-.16-.07-.72.05-1.98.4-3.03 1.29-2.79 2.37.04.17.04.34 0 .43-.04.08-.12.37-.17.65-.2.94-.7 1.26-2.1 1.32-1.28.06-1.96.25-2.71.77-.2.13-.46.37-.61.54l-.25.29.04-.43c.1-1.08.47-1.86 1.14-2.45.5-.44.82-.6 1.69-.87 1.17-.35 1.45-.54 2.02-1.41.31-.47 1.9-1.75 2.68-2.15.69-.35 1.06-.68 1.36-1.19.22-.38.23-.41.23-1.19 0-.81-.16-1.49-.34-1.49-.04 0-.28.06-.54.13-2.05.54-3.06 1.92-2.41 3.29l.14.29-.89.71c-.76.61-.95.79-1.23 1.23-.18.29-.41.57-.52.64-.09.06-.53.21-.97.33-.97.27-1.43.5-1.97.98l-.43.37.04-.22c.16-.88.59-1.61 1.24-2.12.33-.27.61-.41 1.3-.67 1.33-.51 1.34-.51 1.69-.78.37-.27.42-.48.18-.67-.22-.18-.54-.15-.88.07-.16.11-.45.25-.65.31-1.45.42-1.84.6-2.49 1.15-.26.22-.58.56-.72.75l-.24.34-.25-.33c-.7-.93-1.35-1.33-3.07-1.87-.33-.11-.73-.27-.88-.37-.33-.21-.64-.23-.8-.04-.35.39.09.75 1.62 1.35.87.34 1.17.49 1.51.76.73.57 1.15 1.23 1.25 1.98l.05.38-.29-.27c-.56-.54-1.21-.89-2.07-1.1-.86-.2-1.05-.33-1.44-.92-.28-.42-.46-.61-1.25-1.23L15 5.75l.12-.22c.24-.44.29-.69.26-1.08-.09-.94-.92-1.73-2.32-2.21-.61-.21-.92-.26-.96-.15m1.66 1.97c.27.31.45.69.45.93 0 .21-.09.18-.33-.11-.18-.24-.49-.86-.49-1 0-.16.14-.09.37.18m15.93.01c-.06.27-.54 1.09-.65 1.09s-.08-.44.06-.69c.29-.57.69-.83.59-.4M8.39 7.96c.42.23.54.45.21.38-.26-.05-.82-.35-.87-.48-.08-.16.27-.1.66.1m27.04-.14c0 .13-.75.55-.98.55-.25 0-.11-.2.27-.41.34-.17.71-.25.71-.14m-21.74.54c.29.24.44.45.44.58 0 .19-.07.18-.34-.06-.32-.26-.55-.54-.55-.66 0-.08.03-.08.17-.03.09.04.22.12.28.17m16.18-.17c0 .21-.63.89-.83.89-.12 0-.07-.25.09-.45.15-.19.57-.5.69-.5.03 0 .05.03.05.06m6.49 2.84c.02.03-.04.1-.12.16-.21.11-1.39.41-1.45.37-.17-.15.43-.43 1.08-.52.19-.02.37-.05.4-.05.02 0 .06.01.09.04m-28.27.22c.18.08.33.17.33.2 0 .17-1.29-.11-1.55-.33-.2-.17.81-.06 1.22.13" fill="#333333"/><path d="M11.98 2.37c-.15.39-.18 1.47-.04 1.9.22.68.77 1.27 1.52 1.63.23.11.87.56 1.42.99.85.67 1.05.87 1.32 1.28.45.7.81.95 1.9 1.28.95.3 1.38.53 1.87 1 .58.55.99 1.54.99 2.35v.34l-.19-.24c-.11-.12-.35-.34-.54-.48-.75-.54-1.52-.79-2.47-.79-.89 0-1.62-.18-1.96-.48-.26-.23-.38-.47-.48-.97a4 4 0 0 0-.15-.58c-.05-.06-.03-.21.02-.4.3-1.05-.94-2.07-2.91-2.4-.68-.11-.69-.1-.66.71.04.77.2 1.15.67 1.6.38.38.87.64 1.42.77.32.07.43.13.46.23.02.07.07.29.12.48.11.47.47 1 .84 1.26.15.1.28.2.26.22-.02.01-.25.07-.51.13-.72.17-1.3.15-1.79-.07-.6-.27-.83-.56-.99-1.19-.24-.94-.6-1.37-1.7-1.97-.53-.29-.57-.34-.57-.53 0-.38-.16-.72-.46-.99-.7-.64-1.95-.83-3.35-.53-.41.09-.44.11-.39.27.06.27.66 1.06 1.06 1.41.52.46.98.62 1.74.63h.55l.67.38c1 .56 1.22.81 1.36 1.55.12.59.35.98.82 1.35.65.51 1.53.77 2.41.71.25-.01.85-.13 1.34-.26.82-.21.96-.23 1.74-.23.8 0 .89.01 1.3.18.26.1.64.33.9.54.77.62 1.14 1.41 1.14 2.45v.51l-.18-.3c-.5-.8-1.57-1.53-2.67-1.81-.49-.13-.69-.14-3.12-.17l-2.6-.03-.42-.17c-.9-.35-1.4-.87-1.8-1.88-.45-1.1-1.03-1.71-1.88-1.96-.35-.11-.54-.13-1.13-.11-.6.02-.78.05-1.2.21-.76.29-1.47.72-1.47.91 0 .13.93.84 1.43 1.09.63.32 1.05.42 1.72.42.41-.01.72-.05 1-.13.22-.08.41-.13.42-.12s.11.22.23.47c.52 1.07 1.47 1.8 2.77 2.14.43.11.73.12 2.71.16 2.04.04 2.26.05 2.67.17.92.28 1.59.76 2.01 1.47.33.56.48 1.18.48 2.06-.01 2.11-1.28 3.91-3.18 4.45-.36.11-.68.13-2.21.17-1.81.04-1.99.06-2.64.33-.35.14-.64.34-.97.68l-.3.29h-.5c-.94 0-1.2.08-1.85.57-.59.44-.64.46-1.14.53-.82.11-.74.78.09.77.68-.01 1.04-.13 1.56-.55.26-.2.56-.4.66-.43.09-.03.39-.05.66-.05.81 0 1.04-.08 1.58-.54.71-.59.77-.61 2.28-.65.69-.02 1.25-.01 1.23.01-.02.03-.08.05-.13.05-.06 0-.37.1-.69.24-.58.23-.96.48-1.54 1.01l-.3.27-.81.08c-.44.04-.98.12-1.2.19-.49.14-.96.5-1.27.97-.43.65-.75.8-1.73.8-.87 0-1.38.24-2.04.98-.12.13-.34.35-.5.49-.32.28-.35.49-.13.67.27.21.5.15.99-.26.26-.21.61-.52.8-.69l.33-.32.82-.04c1.27-.07 1.73-.28 2.25-1.07.4-.58.67-.75 1.35-.83.26-.03.56-.06.67-.06h.2l-.04.5c-.03.38-.01.62.13 1.12.21.82.17 1.05-.26 1.52-.31.34-.61.54-1.23.86-.21.11-.27.18-.28.35-.02.18.01.24.17.32.17.09.23.09.5.02.73-.19 1.66-.85 2.02-1.42.31-.49.37-.87.22-1.61-.23-1.22-.05-1.98.61-2.51.41-.33.7-.47 1.57-.75 1.62-.51 2.62-1.03 3.67-1.89l.72-.6v.32c0 .45-.25 1.04-.59 1.39-.57.58-1.65 1.13-2.75 1.41-.86.21-1.09.32-1.5.67-.8.68-.86 1.35-.14 1.3.23-.02.3-.06.55-.35.38-.47.62-.61 1.36-.79.87-.22 1.32-.38 1.95-.72.73-.38 1.28-.79 1.64-1.23l.3-.35v.53c0 .29-.02.62-.04.72-.08.28-.56.68-1.15.93-.92.38-1.33.82-1.39 1.48-.02.27.01.44.13.71.1.2.19.47.2.61.04.23.01.27-.3.54-.38.32-.45.57-.21.74.23.17.5.13.85-.13.69-.5.86-1.09.54-1.81-.22-.52-.23-.64-.08-.86.14-.22.37-.37.93-.63.27-.12.57-.29.69-.38l.2-.15v2.74c0 2.67 0 2.73.16 2.89.19.19.58.21.81.03.14-.11.14-.19.14-2.89v-2.77l.25.18c.13.1.41.26.62.34.53.21.88.47 1.02.75.1.22.1.26 0 .49-.37.8-.39.94-.2 1.38.16.39.8.92 1.11.92.26 0 .34-.05.46-.22.13-.19.11-.24-.2-.51-.54-.47-.55-.55-.23-1.2.2-.39.23-.52.2-.79-.08-.55-.66-1.14-1.45-1.46-.99-.4-1.2-.75-1.14-1.87l.01-.27.23.29c.66.84 2.17 1.66 3.68 2.02.78.18.9.24 1.3.7.27.31.36.38.57.39.3.02.53-.12.53-.33 0-.39-.68-1.11-1.26-1.34-.18-.08-.59-.21-.89-.28-.63-.15-1.3-.4-1.75-.66-.5-.29-1.11-.81-1.29-1.08-.18-.3-.38-.97-.38-1.29l.01-.2.16.17c.31.37 1.45 1.19 2.09 1.53.7.37 1.52.7 2.4.96 1.58.48 2.33 1.44 2.1 2.69-.24 1.23-.24 1.24-.12 1.63.06.21.2.49.29.62.37.49 1.26 1.07 1.97 1.29.33.1.63-.03.66-.3.03-.23-.07-.34-.43-.49-.73-.3-1.48-1.1-1.48-1.58 0-.11.06-.45.15-.75.12-.42.15-.67.12-1.08l-.04-.53.54.04c.9.07 1.21.22 1.61.82.32.47.59.72 1.03.91.33.14.5.17 1.23.21.97.04.91.02 1.63.74.64.66.99.8 1.36.59.21-.12.22-.44 0-.59-.09-.06-.32-.29-.53-.5-.9-.92-1.08-1.01-2.26-1.08-1.04-.05-1.13-.1-1.64-.83-.58-.82-1.13-1.05-2.74-1.15-.6-.04-.6-.05-.8-.27-.46-.53-1.25-1.01-2.05-1.24l-.4-.12 1.3.02c1.53.01 1.7.06 2.21.57.48.48.79.6 1.56.6.73 0 .89.05 1.37.47.42.36.63.45 1.22.53.51.08.78.02.91-.17.21-.31.01-.5-.62-.59-.29-.04-.44-.12-.85-.44-.65-.51-.85-.59-1.7-.62-.68-.03-.69-.03-.93-.25-1.05-.94-1.51-1.07-3.75-1.07-2.12 0-2.68-.15-3.69-.98-.96-.78-1.49-1.75-1.66-3.08-.18-1.33.2-2.56 1.03-3.32.41-.37.84-.6 1.42-.76.44-.13.65-.14 2.67-.17 2.13-.04 2.2-.05 2.78-.21.76-.2 1.11-.37 1.65-.77.49-.37.85-.81 1.09-1.37.09-.21.19-.4.21-.41.01-.02.21.02.43.1.55.17 1.51.18 2.04.02s1.1-.48 1.74-.97l.56-.42-.19-.16c-.33-.29-1.25-.74-1.76-.86-.3-.08-.71-.13-1.02-.13-1.44 0-2.35.66-2.92 2.15-.32.82-.62 1.2-1.25 1.55-.76.42-.83.43-3.62.47-2.76.04-2.91.06-3.82.42-.61.24-1.51.94-1.84 1.45l-.24.35v-.51c0-1.32.77-2.46 1.98-2.92.47-.18.55-.19 1.36-.19.78 0 .92.02 1.74.23 1.13.29 1.7.34 2.39.17.82-.2 1.46-.58 1.85-1.11.1-.15.24-.51.33-.84.2-.81.39-1.01 1.44-1.6.49-.27.56-.29 1.11-.32.78-.05 1.36-.26 1.85-.67.38-.33 1.06-1.35.99-1.49-.07-.16-.84-.29-1.65-.29-1.53 0-2.37.51-2.52 1.51l-.05.34-.57.32c-1.11.63-1.45 1.03-1.69 1.97-.16.65-.41.93-1.03 1.19-.55.22-1.18.24-1.84.03l-.43-.13.36-.31c.48-.41.6-.6.76-1.22l.12-.51.49-.12c.9-.24 1.5-.69 1.85-1.39.17-.37.28-1.57.14-1.72-.06-.08-.16-.07-.72.05-1.98.4-3.03 1.29-2.79 2.37.04.17.04.34 0 .43-.04.08-.12.37-.17.65-.2.94-.7 1.26-2.1 1.32-1.28.06-1.96.25-2.71.77-.2.13-.46.37-.61.54l-.25.29.04-.43c.1-1.08.47-1.86 1.14-2.45.5-.44.82-.6 1.69-.87 1.17-.35 1.45-.54 2.02-1.41.31-.47 1.9-1.75 2.68-2.15.69-.35 1.06-.68 1.36-1.19.22-.38.23-.41.23-1.19 0-.81-.16-1.49-.34-1.49-.04 0-.28.06-.54.13-2.05.54-3.06 1.92-2.41 3.29l.14.29-.89.71c-.76.61-.95.79-1.23 1.23-.18.29-.41.57-.52.64-.09.06-.53.21-.97.33-.97.27-1.43.5-1.97.98l-.43.37.04-.22c.16-.88.59-1.61 1.24-2.12.33-.27.61-.41 1.3-.67 1.33-.51 1.34-.51 1.69-.78.37-.27.42-.48.18-.67-.22-.18-.54-.15-.88.07-.16.11-.45.25-.65.31-1.45.42-1.84.6-2.49 1.15-.26.22-.58.56-.72.75l-.24.34-.25-.33c-.7-.93-1.35-1.33-3.07-1.87-.33-.11-.73-.27-.88-.37-.33-.21-.64-.23-.8-.04-.35.39.09.75 1.62 1.35.87.34 1.17.49 1.51.76.73.57 1.15 1.23 1.25 1.98l.05.38-.29-.27c-.56-.54-1.21-.89-2.07-1.1-.86-.2-1.05-.33-1.44-.92-.28-.42-.46-.61-1.25-1.23L15 5.75l.12-.22c.24-.44.29-.69.26-1.08-.09-.94-.92-1.73-2.32-2.21-.61-.21-.92-.26-.96-.15-.01.04-.07.17-.12.28m2.23 2.62c0 .21-.09.18-.33-.11-.18-.24-.49-.86-.49-1 0-.16.14-.09.37.18.27.31.45.69.45.93m14.83.17c-.11 0-.08-.44.06-.69.29-.57.69-.83.59-.4-.06.27-.54 1.09-.65 1.09M8.6 8.34c-.26-.05-.82-.35-.87-.48-.08-.16.27-.1.66.1.42.23.54.45.21.38m25.85.03c-.25 0-.11-.2.27-.41.34-.17.71-.25.71-.14 0 .13-.75.55-.98.55m-20.32.57c0 .19-.07.18-.34-.06-.32-.26-.55-.54-.55-.66 0-.08.03-.08.17-.03.09.04.22.12.28.17.29.24.44.45.44.58m14.91.14c-.12 0-.07-.25.09-.45.15-.19.57-.5.69-.5.03 0 .05.03.05.06 0 .21-.63.89-.83.89m7.2 2.11c-.21.11-1.39.41-1.45.37-.17-.15.43-.43 1.08-.52.19-.02.37-.05.4-.05.02 0 .06.01.09.04.02.03-.04.1-.12.16m-27.82.26c0 .17-1.29-.11-1.55-.33-.2-.17.81-.06 1.22.13.18.08.33.17.33.2"/><path d="M7.85 4.01c-.15.03-.17.07-.17.3 0 .33.17.91.38 1.22.23.37.75.78 1.23.97q.705.285 1.56.09c.37-.08.43-.18.42-.81 0-.35-.03-.46-.2-.69-.35-.49-.94-.81-1.75-.97-.48-.09-1.23-.15-1.47-.11m1.93 1.31c.13.05.29.15.36.22.16.15.17.33.04.33-.21 0-.94-.65-.73-.65.05 0 .19.04.33.1" fill="#333333"/><path d="M7.68 4.31c0 .33.17.91.38 1.22.23.37.75.78 1.23.97q.705.285 1.56.09c.37-.08.43-.18.42-.81 0-.35-.03-.46-.2-.69-.35-.49-.94-.81-1.75-.97-.48-.09-1.23-.15-1.47-.11-.15.03-.17.07-.17.3m2.46 1.23c.16.15.17.33.04.33-.21 0-.94-.65-.73-.65.05 0 .19.04.33.1.13.05.29.15.36.22"/><path d="M34.31 4.04c-1.69.17-2.68 1.04-2.46 2.14.05.27.09.33.28.4.12.05.45.09.74.09.66 0 1.21-.19 1.7-.61.42-.36.63-.69.76-1.19.24-.91.19-.96-1.02-.83m-.66 1.25c0 .03-.15.18-.32.33-.23.19-.36.26-.45.24-.13-.05-.13-.06.02-.23.22-.28.75-.53.75-.34" fill="#333333"/><path d="M31.85 6.18c.05.27.09.33.28.4.12.05.45.09.74.09.66 0 1.21-.19 1.7-.61.42-.36.63-.69.76-1.19.24-.91.19-.96-1.02-.83-1.69.17-2.68 1.04-2.46 2.14m1.48-.56c-.23.19-.36.26-.45.24-.13-.05-.13-.06.02-.23.22-.28.75-.53.75-.34 0 .03-.15.18-.32.33"/><path d="M6.58 13.62c-.22.05-.5.13-.63.19-.41.17-1.05.74-1.29 1.15-.38.61-.38.62-.03.73.4.13 1.51.24 2 .19.85-.07 1.61-.5 1.9-1.06.16-.31.14-.71-.04-.88-.3-.32-1.23-.47-1.91-.32m.97.83c.02.08-.74.39-.96.39-.32 0-.16-.16.42-.4.21-.09.51-.08.54.01" fill="#333333"/><path d="M5.95 13.81c-.41.17-1.05.74-1.29 1.15-.38.61-.38.62-.03.73.4.13 1.51.24 2 .19.85-.07 1.61-.5 1.9-1.06.16-.31.14-.71-.04-.88-.3-.32-1.23-.47-1.91-.32-.22.05-.5.13-.63.19m.64 1.03c-.32 0-.16-.16.42-.4.21-.09.51-.08.54.01.02.08-.74.39-.96.39"/><path d="M35.49 13.59c-.73.1-1.09.43-.99.9.1.52.6 1.01 1.27 1.25.3.11.5.13 1.07.13.78 0 1.84-.16 1.91-.29.05-.1-.26-.65-.56-.99-.66-.78-1.66-1.14-2.7-1m.95 1.02c.19.1.31.2.29.23-.09.12-1.13-.24-1.21-.41-.06-.14.56-.02.92.18" fill="#333333"/><path d="M34.5 14.49c.1.52.6 1.01 1.27 1.25.3.11.5.13 1.07.13.78 0 1.84-.16 1.91-.29.05-.1-.26-.65-.56-.99-.66-.78-1.66-1.14-2.7-1-.73.1-1.09.43-.99.9m2.23.35c-.09.12-1.13-.24-1.21-.41-.06-.14.56-.02.92.18.19.1.31.2.29.23"/><path d="M11.98 15.85c-.79.11-1.45.51-1.69 1.03-.18.38-.27 1.02-.2 1.41.05.28.06.29.29.29.35 0 1.3-.23 1.65-.39.95-.44 1.32-1.26.96-2.04-.18-.38-.25-.4-1.01-.3m.08.94c0 .14-.47.57-.58.52s-.05-.19.18-.44c.19-.21.4-.25.4-.08" fill="#333333"/><path d="M10.29 16.88c-.18.38-.27 1.02-.2 1.41.05.28.06.29.29.29.35 0 1.3-.23 1.65-.39.95-.44 1.32-1.26.96-2.04-.18-.38-.25-.4-1.01-.3-.79.11-1.45.51-1.69 1.03m1.19.43c-.11-.05-.05-.19.18-.44.19-.21.4-.25.4-.08 0 .14-.47.57-.58.52"/><path d="M30.34 15.84c-.17.08-.33.56-.34.94-.01.88.84 1.52 2.35 1.77.32.05.59.08.61.07.09-.08.02-1.39-.09-1.65-.15-.37-.62-.78-1.09-.97-.41-.15-1.28-.25-1.44-.16m1.12 1.04c.19.19.26.45.12.45-.09 0-.5-.4-.55-.54-.06-.19.22-.13.43.09" fill="#333333"/><path d="M30 16.78c-.01.88.84 1.52 2.35 1.77.32.05.59.08.61.07.09-.08.02-1.39-.09-1.65-.15-.37-.62-.78-1.09-.97-.41-.15-1.28-.25-1.44-.16-.17.08-.33.56-.34.94m1.58.55c-.09 0-.5-.4-.55-.54-.06-.19.22-.13.43.09.19.19.26.45.12.45"/><path d="M15.68 28.15c-.58.17-.39.94.23.94.61 0 .84-.7.29-.92-.23-.1-.25-.1-.52-.02" fill="#333333"/><path d="M15.91 29.09c.61 0 .84-.7.29-.92-.23-.1-.25-.1-.52-.02-.58.17-.39.94.23.94"/><path d="M26.68 28.3c-.32.32-.04.79.46.79.28 0 .65-.29.65-.51 0-.41-.79-.61-1.11-.28" fill="#333333"/><path d="M27.14 29.09c.28 0 .65-.29.65-.51 0-.41-.79-.61-1.11-.28-.32.32-.04.79.46.79"/><path d="M15.65 30.21c-.31.15-.37.37-.2.65.16.27.43.36.76.25.45-.15.57-.67.2-.86-.29-.15-.52-.16-.76-.04" fill="#333333"/><path d="M15.45 30.86c.16.27.43.36.76.25.45-.15.57-.67.2-.86-.29-.15-.52-.16-.76-.04-.31.15-.37.37-.2.65"/><path d="M26.83 30.16c-.42.14-.53.61-.18.86.52.39 1.32-.13.98-.64-.06-.09-.5-.29-.6-.28-.01 0-.1.03-.2.06" fill="#333333"/><path d="M26.65 31.02c.52.39 1.32-.13.98-.64-.06-.09-.5-.29-.6-.28-.01 0-.1.03-.2.06-.42.14-.53.61-.18.86"/><path d="M7.24 30.55c-.35.36-.05.86.52.86.2 0 .58-.32.58-.48 0-.17-.19-.45-.33-.5-.29-.09-.62-.03-.77.12" fill="#333333"/><path d="M7.76 31.41c.2 0 .58-.32.58-.48 0-.17-.19-.45-.33-.5-.29-.09-.62-.03-.77.12-.35.36-.05.86.52.86"/><path d="M34.93 30.53c-.33.28-.1.88.35.88.43 0 .81-.34.72-.63-.12-.38-.74-.52-1.07-.25" fill="#333333"/><path d="M35.28 31.41c.43 0 .81-.34.72-.63-.12-.38-.74-.52-1.07-.25-.33.28-.1.88.35.88"/><path d="M24.61 31.65c-.5.15-.34.76.2.76.24 0 .53-.23.53-.41 0-.26-.39-.45-.73-.35" fill="#333333"/><path d="M24.81 32.41c.24 0 .53-.23.53-.41 0-.26-.39-.45-.73-.35-.5.15-.34.76.2.76"/><path d="M17.89 31.74c-.08.06-.12.17-.11.31.05.42.71.49.95.1.09-.15.08-.18-.05-.32-.18-.19-.61-.25-.79-.09" fill="#333333"/><path d="M17.78 32.05c.05.42.71.49.95.1.09-.15.08-.18-.05-.32-.18-.19-.61-.25-.79-.09-.08.06-.12.17-.11.31"/><path d="M19.66 34.37c-.27.09-.55.41-.56.65-.01.11-.02.51-.03.87-.02.35-.02.66-.03.66 0 .01-.1-.05-.21-.13-.38-.29-.61-.35-1.29-.35-.57 0-.68.01-1.13.2-1.91.78-2.33 2.82-.84 4.09.69.58 1.58.86 2.35.73.42-.07.77-.22 1-.42.13-.12.13-.12.27.06.16.2.55.41.79.41.28 0 .74-.22.88-.42.1-.17.12-.54.12-3.02.02-2.63.01-2.83-.12-3.02-.2-.3-.77-.45-1.2-.31M18.4 37.5c.66.25.97 1.02.64 1.59q-.36.63-1.2.63c-.77 0-1.32-.57-1.24-1.28.08-.77 1-1.25 1.8-.94" fill="#333333"/><path d="M19.1 35.02c-.01.11-.02.51-.03.87-.02.35-.02.66-.03.66 0 .01-.1-.05-.21-.13-.38-.29-.61-.35-1.29-.35-.57 0-.68.01-1.13.2-1.91.78-2.33 2.82-.84 4.09.69.58 1.58.86 2.35.73.42-.07.77-.22 1-.42.13-.12.13-.12.27.06.16.2.55.41.79.41.28 0 .74-.22.88-.42.1-.17.12-.54.12-3.02.02-2.63.01-2.83-.12-3.02-.2-.3-.77-.45-1.2-.31-.27.09-.55.41-.56.65m-.06 4.07q-.36.63-1.2.63c-.77 0-1.32-.57-1.24-1.28.08-.77 1-1.25 1.8-.94.66.25.97 1.02.64 1.59"/><path d="M29.04 34.42c-.11.05-.26.17-.33.27-.13.18-.14.34-.14 2.24 0 1.86.01 2.08.14 2.4.53 1.28 2.14 2.04 3.89 1.82 1.48-.18 2.6-1.05 2.83-2.18.05-.2.08-1.18.08-2.19 0-1.63-.02-1.87-.14-2.05-.27-.45-1.1-.54-1.54-.17-.19.16-.22.23-.27.72-.02.31-.05 1.19-.05 1.97-.01.84-.04 1.52-.09 1.67-.05.14-.2.32-.36.45-.73.56-1.92.37-2.37-.38-.15-.25-.15-.35-.15-2.14 0-2.09-.03-2.2-.46-2.42-.3-.14-.77-.15-1.04-.01" fill="#333333"/><path d="M28.71 34.69c-.13.18-.14.34-.14 2.24 0 1.86.01 2.08.14 2.4.53 1.28 2.14 2.04 3.89 1.82 1.48-.18 2.6-1.05 2.83-2.18.05-.2.08-1.18.08-2.19 0-1.63-.02-1.87-.14-2.05-.27-.45-1.1-.54-1.54-.17-.19.16-.22.23-.27.72-.02.31-.05 1.19-.05 1.97-.01.84-.04 1.52-.09 1.67-.05.14-.2.32-.36.45-.73.56-1.92.37-2.37-.38-.15-.25-.15-.35-.15-2.14 0-2.09-.03-2.2-.46-2.42-.3-.14-.77-.15-1.04-.01-.11.05-.26.17-.33.27"/><path d="M3.15 34.46c-1.45.29-2.5 1.1-3.01 2.29-.12.25-.14.49-.14 1.1 0 .67.02.82.17 1.13.51 1.01 1.4 1.73 2.54 2.05.72.2 1.92.19 2.64-.01 1.09-.32 1.73-.8 1.73-1.29 0-.23-.04-.3-.29-.49-.25-.21-.32-.23-.63-.23-.3 0-.41.03-.68.2-.51.34-.96.47-1.51.47-.63 0-1.07-.16-1.52-.56-.41-.36-.56-.72-.56-1.28 0-.61.21-1.04.7-1.42.57-.45 1.31-.61 2.05-.44.27.06.39.12 1.05.52.26.17.36.2.6.17.63-.06 1.05-.54.84-.95-.24-.46-.98-.94-1.8-1.17-.57-.16-1.62-.21-2.18-.09" fill="#333333"/><path d="M.14 36.75c-.12.25-.14.49-.14 1.1 0 .67.02.82.17 1.13.51 1.01 1.4 1.73 2.54 2.05.72.2 1.92.19 2.64-.01 1.09-.32 1.73-.8 1.73-1.29 0-.23-.04-.3-.29-.49-.25-.21-.32-.23-.63-.23-.3 0-.41.03-.68.2-.51.34-.96.47-1.51.47-.63 0-1.07-.16-1.52-.56-.41-.36-.56-.72-.56-1.28 0-.61.21-1.04.7-1.42.57-.45 1.31-.61 2.05-.44.27.06.39.12 1.05.52.26.17.36.2.6.17.63-.06 1.05-.54.84-.95-.24-.46-.98-.94-1.8-1.17-.57-.16-1.62-.21-2.18-.09-1.45.29-2.5 1.1-3.01 2.29"/><path d="M9.95 36.16c-1.45.4-2.36 1.59-2.14 2.74.16.87.9 1.63 1.92 2.02.46.18.57.19 1.21.19.54 0 .8-.03 1.12-.13.81-.26 1.54-.84 1.87-1.5.22-.44.23-1.32.03-1.75-.35-.73-.99-1.27-1.81-1.52-.63-.19-1.62-.22-2.2-.05m1.57 1.38c.65.28.94.99.62 1.55-.19.32-.43.49-.84.57-.85.19-1.61-.33-1.62-1.08 0-.46.21-.76.71-1.01.26-.13.84-.14 1.13-.03" fill="#333333"/><path d="M7.81 38.9c.16.87.9 1.63 1.92 2.02.46.18.57.19 1.21.19.54 0 .8-.03 1.12-.13.81-.26 1.54-.84 1.87-1.5.22-.44.23-1.32.03-1.75-.35-.73-.99-1.27-1.81-1.52-.63-.19-1.62-.22-2.2-.05-1.45.4-2.36 1.59-2.14 2.74m4.33.19c-.19.32-.43.49-.84.57-.85.19-1.61-.33-1.62-1.08 0-.46.21-.76.71-1.01.26-.13.84-.14 1.13-.03.65.28.94.99.62 1.55"/><path d="M23.92 36.15c-.54.14-.84.29-1.22.61-.7.58-.96 1.16-.91 2.01.04.62.27 1.04.85 1.54.99.85 2.46 1.06 3.78.54.56-.22.8-.46.8-.78 0-.28-.11-.39-.51-.54-.4-.14-.64-.14-.96.03-.69.38-1.6.2-1.97-.38l-.15-.23h.17c2.5-.01 3.76-.03 3.87-.08.12-.05.13-.11.1-.54-.05-.89-.69-1.68-1.67-2.07-.62-.24-1.52-.29-2.18-.11m1.48 1.25c.21.11.53.44.53.55 0 .03-.49.05-1.11.05-.78 0-1.11-.02-1.11-.07 0-.14.31-.46.54-.55.33-.13.85-.12 1.15.02" fill="#333333"/><path d="M22.7 36.76c-.7.58-.96 1.16-.91 2.01.04.62.27 1.04.85 1.54.99.85 2.46 1.06 3.78.54.56-.22.8-.46.8-.78 0-.28-.11-.39-.51-.54-.4-.14-.64-.14-.96.03-.69.38-1.6.2-1.97-.38l-.15-.23h.17c2.5-.01 3.76-.03 3.87-.08.12-.05.13-.11.1-.54-.05-.89-.69-1.68-1.67-2.07-.62-.24-1.52-.29-2.18-.11-.54.14-.84.29-1.22.61m3.23 1.19c0 .03-.49.05-1.11.05-.78 0-1.11-.02-1.11-.07 0-.14.31-.46.54-.55.33-.13.85-.12 1.15.02.21.11.53.44.53.55"/><path d="M39.33 36.17c-.21.08-.47.23-.58.34-.17.16-.2.17-.2.07 0-.06-.12-.2-.26-.3-.22-.15-.33-.18-.66-.18-.3 0-.44.03-.6.13-.41.25-.41.28-.41 3.34 0 2.67.01 2.84.14 3.05.34.52 1.32.49 1.68-.05.08-.13.11-.41.11-1.14v-.96l.28.21c.34.26.5.33.98.41.69.12 1.57-.15 2.24-.68.7-.56.99-1.18.94-2.01-.05-.64-.31-1.11-.88-1.62-.76-.66-1.96-.92-2.78-.61m1.17 1.45c.84.44.8 1.55-.06 1.96-.86.4-1.89-.14-1.89-1 .01-.93 1.03-1.45 1.95-.96" fill="#333333"/><path d="M38.75 36.51c-.17.16-.2.17-.2.07 0-.06-.12-.2-.26-.3-.22-.15-.33-.18-.66-.18-.3 0-.44.03-.6.13-.41.25-.41.28-.41 3.34 0 2.67.01 2.84.14 3.05.34.52 1.32.49 1.68-.05.08-.13.11-.41.11-1.14v-.96l.28.21c.34.26.5.33.98.41.69.12 1.57-.15 2.24-.68.7-.56.99-1.18.94-2.01-.05-.64-.31-1.11-.88-1.62-.76-.66-1.96-.92-2.78-.61-.21.08-.47.23-.58.34m1.69 3.07c-.86.4-1.89-.14-1.89-1 .01-.93 1.03-1.45 1.95-.96.84.44.8 1.55-.06 1.96"/></svg>